<svg id="Capa_1" data-name="Capa 1" xmlns="http://www.w3.org/2000/svg" viewBox="0 0 378.51 205.74"><defs><style>.cls-1{font-size:72px;font-family:CaviarDreams, Caviar Dreams;}.cls-1,.cls-3{fill:#010101;}.cls-2{letter-spacing:0em;}.cls-3{font-size:127px;font-family:hellohoneyPersonalUse, hello honey - Personal Use;}.cls-4{fill:#809a29;}.cls-4,.cls-5,.cls-6{fill-rule:evenodd;}.cls-5{fill:#ea5620;}.cls-6{fill:#e7286c;}.cls-7{fill:#a9c824;}.cls-8{fill:#f3941d;}.cls-9{fill:#ee7489;}.cls-10{fill:#376ab2;}</style></defs><title>navbar-logo</title><text class="cls-1" transform="translate(105.08 83.88)">Ent<tspan class="cls-2" x="99" y="0">r</tspan><tspan x="119.92" y="0">e</tspan></text><text class="cls-3" transform="translate(9.23 173.61)">Bastidores</text><path class="cls-4" d="M299.64,146.72c57.95-2.43,86.88-47.48,90.43-79.63s-40.68-36.63-35.69,4.43-17.35,66.69-54.74,75.2" transform="translate(-42.4 -33.95)"/><path class="cls-5" d="M310.23,138.16c36.94-22.94,39.22-63,29.68-85.32s-40.06-8.93-21.67,16,13.26,49.93-8,69.28" transform="translate(-42.4 -33.95)"/><path class="cls-6" d="M363.32,130.39c11.77-9.61,22.15-20.49,28.8-32.16,12.95-22.74,23.14-20.34,27.07-14.41,9.23,13.92-19.9,32.69-55.87,46.57" transform="translate(-42.4 -33.95)"/><path class="cls-7" d="M362,90.42a68.62,68.62,0,0,1-9.29,29.43A84,84,0,0,0,360,113C372.54,100,381.07,82.48,382.86,66.3c1.14-10.52-4.38-16.61-10.35-17.16s-10.34,4.47-11.14,13.12a40.66,40.66,0,0,0,.2,8.39,93.49,93.49,0,0,1,.4,19.77" transform="translate(-42.4 -33.95)"/><path class="cls-8" d="M337.18,83.56c.9-9.93-.49-19.83-3.94-27.87-2.45-5.75-6.38-7.31-9.24-6.87a4.92,4.92,0,0,0-4.26,4.61c-.27,3,1.27,7,4.34,11.15,6.39,8.67,10.37,17.53,11.94,26.49a65.62,65.62,0,0,0,1.16-7.51" transform="translate(-42.4 -33.95)"/><path class="cls-9" d="M413.66,89.59a2.55,2.55,0,0,0-.51-1.76c-.55-.83-1-.81-1.14-.8-2,.07-7,3.25-13.58,14.78-1.06,1.84-2.18,3.66-3.41,5.48,12.81-7.8,18.32-14.24,18.64-17.7" transform="translate(-42.4 -33.95)"/><path class="cls-10" d="M360.73,137.65a39.8,39.8,0,0,0,19.13,1.41c4.2-.81,5.8-3.2,5.92-5.17a3.36,3.36,0,0,0-2.45-3.5h0c-2-.61-4.83-.16-8.06,1.29a43,43,0,0,1-19.37,4.13,42,42,0,0,0,4.84,1.84" transform="translate(-42.4 -33.95)"/><path class="cls-4" d="M140.87,150.37C124.73,133.9,72.56,89.3,63.15,59.26S98,21.57,97.66,60.41s15.91,55.65,43.21,90" transform="translate(-42.4 -33.95)"/><path class="cls-6" d="M136.83,134.25c-15.14-16.44-31.21-37.38-29.15-60.61,1.89-21.32,32.7-12.18,20.59,11.27-6.6,20-1,27.73,8.56,49.34" transform="translate(-42.4 -33.95)"/><path class="cls-7" d="M89.54,60.33a104.88,104.88,0,0,0,4,31C82.85,79.11,74.05,66.86,70.91,56.83c-1.74-5.52-1.08-10,1.84-12.64a8.56,8.56,0,0,1,9.11-1.4c5,2.14,7.75,8.54,7.68,17.54" transform="translate(-42.4 -33.95)"/><path class="cls-9" d="M122.62,72.55c.76,2.13.2,5.19-1.57,8.63l-.3.57-.2.62a72.46,72.46,0,0,0-2.46,9.38,42.57,42.57,0,0,1-2.32-17.4c.19-2.15.85-3.7,1.8-4.27a3.12,3.12,0,0,1,2.77,0,4.19,4.19,0,0,1,2.28,2.46" transform="translate(-42.4 -33.95)"/><path class="cls-10" d="M84.79,111.59a40,40,0,0,1-16.5-9.79c-3-3.06-2.92-6-1.89-7.63a3.36,3.36,0,0,1,4-1.47h0c2,.63,4,2.63,5.88,5.67a42.93,42.93,0,0,0,13.52,14.47,41,41,0,0,1-5-1.25" transform="translate(-42.4 -33.95)"/></svg>